<svg xmlns="http://www.w3.org/2000/svg" xmlns:xlink="http://www.w3.org/1999/xlink" width="500" zoomAndPan="magnify" viewBox="0 0 375 374.999991" height="500" preserveAspectRatio="xMidYMid meet" version="1.0"><defs><g/><clipPath id="7fd1c80626"><path d="M 190 86.464844 L 256 86.464844 L 256 168 L 190 168 Z M 190 86.464844 " clip-rule="nonzero"/></clipPath><clipPath id="ecaa8de395"><path d="M 107.152344 86.464844 L 267.652344 86.464844 L 267.652344 209.335938 L 107.152344 209.335938 Z M 107.152344 86.464844 " clip-rule="nonzero"/></clipPath><clipPath id="64c55eeef4"><path d="M 119 86.464844 L 185 86.464844 L 185 168 L 119 168 Z M 119 86.464844 " clip-rule="nonzero"/></clipPath></defs><g clip-path="url(#7fd1c80626)"><path fill="#006400" d="M 255.082031 136.347656 L 239.15625 86.332031 C 239.15625 86.332031 233.007812 91.699219 216.242188 94.246094 C 199.476562 96.789062 190.257812 106.390625 190.257812 106.390625 L 190.257812 167.996094 C 203.386719 151.320312 255.082031 136.347656 255.082031 136.347656 " fill-opacity="1" fill-rule="nonzero"/></g><g clip-path="url(#ecaa8de395)"><path fill="#006400" d="M 261.96875 147.09375 L 224.566406 165.441406 C 226.578125 166.136719 228.597656 167.027344 230.191406 169.355469 C 233.261719 173.816406 229.222656 176.328125 228.800781 176.191406 C 228.648438 176.144531 223.070312 173.28125 216.011719 169.644531 L 213.449219 170.90625 L 213.449219 170.914062 C 223.589844 174.558594 231.210938 187.03125 234.847656 190.046875 C 239.488281 193.871094 246.140625 192.699219 250.570312 199.148438 C 255.007812 205.601562 249.164062 209.292969 248.554688 209.09375 C 248.03125 208.921875 202.207031 185.707031 190.292969 179.242188 L 184.714844 179.242188 C 172.796875 185.707031 126.972656 208.921875 126.449219 209.09375 C 125.839844 209.292969 119.996094 205.601562 124.433594 199.148438 C 128.863281 192.699219 135.515625 193.871094 140.15625 190.046875 C 143.792969 187.03125 151.417969 174.558594 161.554688 170.914062 L 161.554688 170.90625 L 158.992188 169.644531 C 151.933594 173.28125 146.355469 176.144531 146.203125 176.191406 C 145.78125 176.328125 141.742188 173.816406 144.8125 169.355469 C 146.40625 167.027344 148.425781 166.136719 150.4375 165.441406 L 113.035156 147.09375 L 107.160156 144.207031 L 109.179688 137.707031 L 125.074219 86.488281 L 131.25 88.40625 L 115.082031 140.503906 L 187.503906 174.792969 L 259.921875 140.503906 L 243.753906 88.40625 L 249.929688 86.488281 L 265.824219 137.707031 L 267.84375 144.207031 L 261.96875 147.09375 " fill-opacity="1" fill-rule="nonzero"/></g><g clip-path="url(#64c55eeef4)"><path fill="#006400" d="M 184.746094 167.996094 L 184.746094 106.390625 C 184.746094 106.390625 175.523438 96.789062 158.761719 94.246094 C 141.996094 91.699219 135.847656 86.332031 135.847656 86.332031 L 119.921875 136.347656 C 119.921875 136.347656 171.613281 151.320312 184.746094 167.996094 " fill-opacity="1" fill-rule="nonzero"/></g><g fill="#006400" fill-opacity="1"><g transform="translate(46.567384, 271.356061)"><g><path d="M -0.578125 0 C 0.0546875 -0.914062 0.8125 -2.097656 1.6875 -3.546875 C 2.5625 -4.992188 3.394531 -6.476562 4.1875 -8 L 13.234375 -25.3125 C 14.023438 -26.90625 14.632812 -28.40625 15.0625 -29.8125 C 15.488281 -31.226562 15.78125 -32.394531 15.9375 -33.3125 L 27.609375 -33.3125 C 27.828125 -32.238281 28.148438 -30.96875 28.578125 -29.5 C 29.003906 -28.039062 29.535156 -26.664062 30.171875 -25.375 L 39.3125 -8 C 40.101562 -6.4375 40.925781 -4.941406 41.78125 -3.515625 C 42.644531 -2.085938 43.394531 -0.914062 44.03125 0 L 34.703125 0 C 34.597656 -0.632812 34.382812 -1.363281 34.0625 -2.1875 C 33.75 -3.007812 33.242188 -4.039062 32.546875 -5.28125 L 31.171875 -7.8125 L 12.28125 -7.8125 L 10.90625 -5.234375 C 10.332031 -4.023438 9.851562 -3.007812 9.46875 -2.1875 C 9.09375 -1.363281 8.851562 -0.632812 8.75 0 Z M 15.046875 -13.46875 L 28.40625 -13.46875 L 23.984375 -21.984375 C 23.578125 -22.878906 23.210938 -23.742188 22.890625 -24.578125 C 22.578125 -25.421875 22.257812 -26.300781 21.9375 -27.21875 L 21.515625 -27.21875 C 21.191406 -26.269531 20.867188 -25.382812 20.546875 -24.5625 C 20.234375 -23.738281 19.859375 -22.863281 19.421875 -21.9375 Z M 15.046875 -13.46875 "/></g></g></g><g fill="#006400" fill-opacity="1"><g transform="translate(90.019593, 271.356061)"><g><path d="M 28.9375 0.71875 C 27.125 0.71875 25.457031 0.597656 23.9375 0.359375 C 22.414062 0.117188 20.882812 -0.109375 19.34375 -0.328125 C 17.800781 -0.554688 16.050781 -0.671875 14.09375 -0.671875 C 11.894531 -0.671875 9.914062 -0.519531 8.15625 -0.21875 C 6.394531 0.0820312 4.960938 0.394531 3.859375 0.71875 C 4.140625 -0.238281 4.359375 -1.523438 4.515625 -3.140625 C 4.679688 -4.753906 4.765625 -6.375 4.765625 -8 L 4.765625 -25.3125 C 4.765625 -26.9375 4.675781 -28.445312 4.5 -29.84375 C 4.320312 -31.238281 4.109375 -32.394531 3.859375 -33.3125 L 13 -33.3125 C 12.769531 -32.394531 12.566406 -31.109375 12.390625 -29.453125 C 12.222656 -27.804688 12.140625 -26.175781 12.140625 -24.5625 L 12.140625 -6.28125 L 26.65625 -6.28125 C 28.71875 -6.28125 30.628906 -6.40625 32.390625 -6.65625 C 34.148438 -6.914062 35.519531 -7.25 36.5 -7.65625 L 36.078125 -0.328125 C 35.472656 -0.203125 34.503906 0 33.171875 0.28125 C 31.835938 0.570312 30.425781 0.71875 28.9375 0.71875 Z M 28.9375 0.71875 "/></g></g></g><g fill="#006400" fill-opacity="1"><g transform="translate(127.855848, 271.356061)"><g/></g></g><g fill="#006400" fill-opacity="1"><g transform="translate(141.229418, 271.356061)"><g><path d="M 32.03125 6.421875 C 30.820312 6.421875 29.671875 6.257812 28.578125 5.9375 C 27.484375 5.625 26.40625 5.257812 25.34375 4.84375 C 24.28125 4.4375 23.207031 4.070312 22.125 3.75 C 21.050781 3.4375 19.925781 3.28125 18.75 3.28125 C 17.351562 3.28125 16.242188 3.554688 15.421875 4.109375 C 14.597656 4.671875 13.914062 5.347656 13.375 6.140625 L 10.796875 3.8125 C 11.304688 3.050781 11.910156 2.367188 12.609375 1.765625 C 13.304688 1.160156 14.257812 0.648438 15.46875 0.234375 L 15.46875 -0.28125 C 12.800781 -0.976562 10.46875 -2.082031 8.46875 -3.59375 C 6.46875 -5.101562 4.910156 -6.957031 3.796875 -9.15625 C 2.691406 -11.363281 2.140625 -13.863281 2.140625 -16.65625 C 2.140625 -20.269531 3.023438 -23.367188 4.796875 -25.953125 C 6.578125 -28.546875 9.019531 -30.53125 12.125 -31.90625 C 15.238281 -33.289062 18.78125 -33.984375 22.75 -33.984375 C 26.71875 -33.984375 30.253906 -33.289062 33.359375 -31.90625 C 36.472656 -30.53125 38.914062 -28.546875 40.6875 -25.953125 C 42.46875 -23.367188 43.359375 -20.269531 43.359375 -16.65625 C 43.359375 -13.257812 42.546875 -10.304688 40.921875 -7.796875 C 39.304688 -5.296875 37.085938 -3.320312 34.265625 -1.875 C 31.441406 -0.4375 28.207031 0.394531 24.5625 0.625 L 24.5625 1.046875 C 25.757812 1.460938 26.953125 1.867188 28.140625 2.265625 C 29.335938 2.660156 30.585938 2.859375 31.890625 2.859375 C 33.023438 2.859375 33.96875 2.679688 34.71875 2.328125 C 35.46875 1.984375 36.09375 1.523438 36.59375 0.953125 L 38.78125 3.765625 C 38.019531 4.460938 37.078125 5.078125 35.953125 5.609375 C 34.828125 6.148438 33.519531 6.421875 32.03125 6.421875 Z M 22.75 -5.234375 C 25.257812 -5.234375 27.492188 -5.691406 29.453125 -6.609375 C 31.421875 -7.535156 32.976562 -8.851562 34.125 -10.5625 C 35.269531 -12.28125 35.84375 -14.3125 35.84375 -16.65625 C 35.84375 -19.039062 35.269531 -21.078125 34.125 -22.765625 C 32.976562 -24.460938 31.421875 -25.769531 29.453125 -26.6875 C 27.492188 -27.613281 25.257812 -28.078125 22.75 -28.078125 C 20.269531 -28.078125 18.039062 -27.613281 16.0625 -26.6875 C 14.082031 -25.769531 12.519531 -24.460938 11.375 -22.765625 C 10.226562 -21.078125 9.65625 -19.039062 9.65625 -16.65625 C 9.65625 -14.3125 10.226562 -12.28125 11.375 -10.5625 C 12.519531 -8.851562 14.082031 -7.535156 16.0625 -6.609375 C 18.039062 -5.691406 20.269531 -5.234375 22.75 -5.234375 Z M 22.75 -5.234375 "/></g></g></g><g fill="#006400" fill-opacity="1"><g transform="translate(186.728108, 271.356061)"><g><path d="M 15.890625 0.671875 C 12.117188 0.671875 9.207031 -0.296875 7.15625 -2.234375 C 5.113281 -4.171875 4.09375 -6.820312 4.09375 -10.1875 L 4.09375 -16.609375 C 4.09375 -18.191406 4.007812 -19.554688 3.84375 -20.703125 C 3.6875 -21.847656 3.484375 -22.878906 3.234375 -23.796875 L 12.140625 -23.796875 C 11.878906 -22.878906 11.671875 -21.894531 11.515625 -20.84375 C 11.359375 -19.800781 11.28125 -18.484375 11.28125 -16.890625 L 11.28125 -11.65625 C 11.28125 -9.46875 11.953125 -7.753906 13.296875 -6.515625 C 14.648438 -5.285156 16.46875 -4.671875 18.75 -4.671875 C 20.269531 -4.671875 21.6875 -5.023438 23 -5.734375 C 24.320312 -6.453125 25.378906 -7.421875 26.171875 -8.640625 C 26.960938 -9.859375 27.359375 -11.210938 27.359375 -12.703125 L 27.359375 -16.890625 C 27.359375 -18.222656 27.296875 -19.5 27.171875 -20.71875 C 27.046875 -21.945312 26.828125 -22.972656 26.515625 -23.796875 L 35.453125 -23.796875 C 35.171875 -22.878906 34.957031 -21.921875 34.8125 -20.921875 C 34.664062 -19.921875 34.59375 -18.625 34.59375 -17.03125 L 34.59375 -7.09375 C 34.59375 -5.476562 34.664062 -4.128906 34.8125 -3.046875 C 34.957031 -1.960938 35.171875 -0.945312 35.453125 0 L 26.609375 0 C 26.859375 -0.570312 27.046875 -1.238281 27.171875 -2 C 27.296875 -2.757812 27.359375 -3.664062 27.359375 -4.71875 L 27.359375 -6.421875 L 26.890625 -6.421875 C 26.347656 -4.835938 25.515625 -3.515625 24.390625 -2.453125 C 23.265625 -1.390625 21.972656 -0.601562 20.515625 -0.09375 C 19.054688 0.414062 17.515625 0.671875 15.890625 0.671875 Z M 15.890625 0.671875 "/></g></g></g><g fill="#006400" fill-opacity="1"><g transform="translate(225.611403, 271.356061)"><g><path d="M 3.46875 0 C 3.726562 -0.914062 3.925781 -1.875 4.0625 -2.875 C 4.207031 -3.875 4.28125 -5.171875 4.28125 -6.765625 L 4.28125 -16.703125 C 4.28125 -18.316406 4.207031 -19.664062 4.0625 -20.75 C 3.925781 -21.832031 3.726562 -22.847656 3.46875 -23.796875 L 12.703125 -23.796875 C 12.390625 -23.222656 12.113281 -22.441406 11.875 -21.453125 C 11.632812 -20.472656 11.515625 -19.492188 11.515625 -18.515625 L 11.515625 -16.421875 L 11.953125 -16.421875 C 12.546875 -18.992188 13.722656 -20.976562 15.484375 -22.375 C 17.253906 -23.769531 19.328125 -24.46875 21.703125 -24.46875 C 22.523438 -24.46875 23.390625 -24.382812 24.296875 -24.21875 C 25.203125 -24.0625 25.925781 -23.859375 26.46875 -23.609375 L 26.46875 -17.140625 C 25.925781 -17.671875 25.097656 -18.109375 23.984375 -18.453125 C 22.878906 -18.804688 21.769531 -18.984375 20.65625 -18.984375 C 19.195312 -18.984375 17.757812 -18.617188 16.34375 -17.890625 C 14.9375 -17.160156 13.769531 -16.160156 12.84375 -14.890625 C 11.925781 -13.628906 11.46875 -12.203125 11.46875 -10.609375 L 11.46875 -5.28125 C 11.46875 -4.132812 11.539062 -3.148438 11.6875 -2.328125 C 11.832031 -1.503906 12.0625 -0.726562 12.375 0 Z M 3.46875 0 "/></g></g></g><g fill="#006400" fill-opacity="1"><g transform="translate(253.310402, 271.356061)"><g><path d="M 13.75 0.671875 C 9.882812 0.671875 6.925781 -0.0859375 4.875 -1.609375 C 2.832031 -3.140625 1.8125 -5.09375 1.8125 -7.46875 C 1.8125 -9.851562 2.828125 -11.789062 4.859375 -13.28125 C 6.890625 -14.769531 9.867188 -15.515625 13.796875 -15.515625 C 16.523438 -15.515625 18.859375 -15.046875 20.796875 -14.109375 C 22.734375 -13.171875 24.066406 -12.050781 24.796875 -10.75 L 25.3125 -10.75 L 25.3125 -13.890625 C 25.3125 -16.242188 24.472656 -17.894531 22.796875 -18.84375 C 21.117188 -19.800781 18.832031 -20.28125 15.9375 -20.28125 C 13.84375 -20.28125 11.828125 -20.054688 9.890625 -19.609375 C 7.960938 -19.160156 6.378906 -18.585938 5.140625 -17.890625 L 5.140625 -22.609375 C 6.722656 -23.148438 8.578125 -23.59375 10.703125 -23.9375 C 12.828125 -24.289062 14.988281 -24.46875 17.1875 -24.46875 C 20.039062 -24.46875 22.609375 -24.15625 24.890625 -23.53125 C 27.171875 -22.914062 28.976562 -21.894531 30.3125 -20.46875 C 31.644531 -19.039062 32.3125 -17.085938 32.3125 -14.609375 L 32.3125 -7.28125 C 32.3125 -5.46875 32.375 -4.019531 32.5 -2.9375 C 32.632812 -1.863281 32.859375 -0.882812 33.171875 0 L 24.609375 0 C 25.078125 -0.882812 25.3125 -2.125 25.3125 -3.71875 L 25.3125 -4.28125 L 24.84375 -4.28125 C 24.113281 -2.882812 22.78125 -1.707031 20.84375 -0.75 C 18.90625 0.195312 16.539062 0.671875 13.75 0.671875 Z M 16.75 -3.609375 C 18.175781 -3.609375 19.523438 -3.757812 20.796875 -4.0625 C 22.066406 -4.363281 23.097656 -4.804688 23.890625 -5.390625 C 24.679688 -5.984375 25.078125 -6.722656 25.078125 -7.609375 C 25.078125 -8.410156 24.679688 -9.101562 23.890625 -9.6875 C 23.097656 -10.269531 22.066406 -10.726562 20.796875 -11.0625 C 19.523438 -11.394531 18.175781 -11.5625 16.75 -11.5625 C 14.21875 -11.5625 12.25 -11.203125 10.84375 -10.484375 C 9.445312 -9.773438 8.75 -8.816406 8.75 -7.609375 C 8.75 -6.410156 9.445312 -5.441406 10.84375 -4.703125 C 12.25 -3.972656 14.21875 -3.609375 16.75 -3.609375 Z M 16.75 -3.609375 "/></g></g></g><g fill="#006400" fill-opacity="1"><g transform="translate(289.433317, 271.356061)"><g><path d="M 3.46875 0 C 3.757812 -0.945312 3.972656 -1.910156 4.109375 -2.890625 C 4.253906 -3.878906 4.328125 -5.1875 4.328125 -6.8125 L 4.328125 -16.703125 C 4.328125 -18.316406 4.253906 -19.671875 4.109375 -20.765625 C 3.972656 -21.867188 3.757812 -22.878906 3.46875 -23.796875 L 12.328125 -23.796875 C 12.078125 -23.222656 11.878906 -22.554688 11.734375 -21.796875 C 11.585938 -21.035156 11.515625 -20.144531 11.515625 -19.125 L 11.515625 -17.375 L 12 -17.375 C 12.851562 -19.78125 14.296875 -21.5625 16.328125 -22.71875 C 18.359375 -23.882812 20.578125 -24.46875 22.984375 -24.46875 C 26.765625 -24.46875 29.6875 -23.5 31.75 -21.5625 C 33.8125 -19.625 34.84375 -16.988281 34.84375 -13.65625 L 34.84375 -7.234375 C 34.84375 -5.648438 34.910156 -4.285156 35.046875 -3.140625 C 35.191406 -1.992188 35.410156 -0.945312 35.703125 0 L 26.796875 0 C 27.046875 -0.945312 27.25 -1.941406 27.40625 -2.984375 C 27.570312 -4.035156 27.65625 -5.359375 27.65625 -6.953125 L 27.65625 -12.140625 C 27.65625 -14.359375 26.976562 -16.085938 25.625 -17.328125 C 24.28125 -18.566406 22.46875 -19.1875 20.1875 -19.1875 C 18.65625 -19.1875 17.226562 -18.828125 15.90625 -18.109375 C 14.59375 -17.390625 13.53125 -16.421875 12.71875 -15.203125 C 11.914062 -13.984375 11.515625 -12.628906 11.515625 -11.140625 L 11.515625 -6.953125 C 11.515625 -5.585938 11.585938 -4.300781 11.734375 -3.09375 C 11.878906 -1.882812 12.109375 -0.851562 12.421875 0 Z M 3.46875 0 "/></g></g></g></svg>